<?xml version="1.0" encoding="UTF-8"?>
<svg id="Capa_1" data-name="Capa 1" xmlns="http://www.w3.org/2000/svg" version="1.1" viewBox="0 0 25 456">
  <defs>
    <style>
      .cls-1 {
        fill: #d4a548;
        stroke-width: 0px;
      }
    </style>
  </defs>
  <path class="cls-1" d="M18.9,234.1c-1.6,0-2.9,1.3-2.9,2.9s1.3,2.9,2.9,2.9,2.9-1.3,2.9-2.9c0-1.6-1.3-2.9-2.9-2.9Z"/>
  <path class="cls-1" d="M24.1,220.2c0,0-.1,0-.2,0H6.2l-.3-1.9c-.2-1.2-1.2-2.2-2.5-2.2H1.1c-.6,0-1.1.5-1.1,1.1s.5,1.1,1.1,1.1h2.3c.1,0,.3.1.3.3l1.7,11.8c.2,1.5,1.5,2.6,3,2.6h11.7c1.5,0,2.7-1,3-2.5l1.8-9.1c.1-.6-.3-1.2-.9-1.3Z"/>
  <path class="cls-1" d="M11.8,236.9c0-1.5-1.3-2.8-2.9-2.8-1.6,0-2.9,1.4-2.8,3,0,1.5,1.3,2.8,2.9,2.8h0c1.6,0,2.9-1.4,2.8-3Z"/>
</svg>