<?xml version="1.0" encoding="UTF-8"?>
<svg xmlns="http://www.w3.org/2000/svg" version="1.1" xmlns:svgjs="http://svgjs.com/svgjs" viewBox="0 0 512 512">
  <defs>
    <style>
      .cls-1 {
        fill: #d4a548;
      }
    </style>
  </defs>
  <!-- Generator: Adobe Illustrator 28.6.0, SVG Export Plug-In . SVG Version: 1.2.0 Build 709)  -->
  <g>
    <g id="Layer_1">
      <g>
        <path class="cls-1" d="M75,118.9s13.6,13,13.6,20.5v332.7c0,22,19.5,39.9,43.5,39.9h247.8c24,0,43.5-17.9,43.5-39.9V139.4c0-7.6,13.6-20.5,13.6-20.5v-40.3H75v40.3ZM327.2,164.9h32.4v256.9h-32.4V164.9ZM240.5,164.9h32.3v256.9h-32.3V164.9ZM162.5,164.9h32.3v256.9h-32.3V164.9Z"/>
        <path class="cls-1" d="M452.9,45.3h-100.4c-5-25.7-29.5-45.3-59-45.3h-74.9c-29.5,0-54,19.6-59,45.3H59.2v24.6h393.7v-24.6ZM193.2,45.3c4.1-9.1,14-15.5,25.4-15.5h74.9c11.5,0,21.3,6.4,25.4,15.5h-125.7Z"/>
      </g>
    </g>
  </g>
</svg>