<?xml version="1.0" encoding="UTF-8"?>
<svg id="Capa_1" data-name="Capa 1" xmlns="http://www.w3.org/2000/svg" version="1.1" viewBox="0 0 25 168.1">
  <defs>
    <style>
      .cls-1 {
        fill: #d4a548;
        stroke-width: 0px;
      }
    </style>
  </defs>
  <path class="cls-1" d="M21.4,74.5c-1-.5-2.2-.8-3.4-.8-2.2,0-4.1,1-5.4,2.5-1.3-1.5-3.3-2.5-5.4-2.5s-2.4.3-3.4.8c-2.2,1.2-3.7,3.4-3.7,5.9s.1,1.4.3,2.1c1.2,5.2,8.9,11.8,12.2,11.8s10.9-6.6,12.1-11.8c.2-.7.3-1.4.3-2.1,0-2.6-1.5-4.8-3.6-5.9ZM22.7,82c0,.2-.3.3-.5.3s-.1,0-.2,0c-.3,0-.4-.4-.3-.6.1-.4.2-.8.2-1.2,0-1.4-.8-2.7-2.1-3.4-.6-.3-1.3-.5-2-.5s-.5-.2-.5-.5.2-.5.5-.5c.9,0,1.7.2,2.4.6,1.6.9,2.6,2.5,2.6,4.3,0,.5,0,1-.3,1.5Z"/>
</svg>