<?xml version="1.0" encoding="UTF-8"?>
<svg id="Capa_1" data-name="Capa 1" xmlns="http://www.w3.org/2000/svg" version="1.1" viewBox="0 0 25 108.3">
  <defs>
    <style>
      .cls-1 {
        fill: #d4a548;
        stroke-width: 0px;
      }
    </style>
  </defs>
  <path class="cls-1" d="M12,57c-2.1-1.8-3.6-3.9-4.3-5.2l-.6-1.1c.2-.2,1.7-1.8,2.3-2.7.8-1.1-.4-2.1-.4-2.1,0,0-3.3-3.3-4.1-4-.8-.7-1.6-.3-1.6-.3-1.6,1-3.2,1.9-3.3,6.2,0,4,3.1,8.2,6.4,11.4,3.3,3.6,7.9,7.3,12.3,7.3,4.3,0,5.2-1.7,6.2-3.3,0,0,.4-.9-.3-1.6-.7-.8-4-4.1-4-4.1,0,0-1-1.2-2.1-.4-.8.6-2.3,2-2.6,2.3,0,0-2.4-1.3-3.9-2.5Z"/>
</svg>