<svg version="1.2" baseProfile="tiny-ps" xmlns="http://www.w3.org/2000/svg" viewBox="0 0 25 25" width="25" height="25">
	<title>globe-svg</title>
	<style>
		tspan { white-space:pre }
		.shp0 { fill: #ec008c } 
	</style>
	<g id="Layer">
		<g id="Layer">
			<g id="Layer">
				<path id="Layer" fill-rule="evenodd" class="shp0" d="M24.97 12.5C24.97 15.53 23.87 18.46 21.87 20.74C21.72 20.91 21.57 21.08 21.41 21.24C16.78 25.95 9.27 26.24 4.29 21.9C-0.92 17.36 -1.46 9.47 3.07 4.26C3.22 4.09 3.38 3.93 3.53 3.77C5.21 2.05 7.35 0.85 9.69 0.32C9.77 0.3 9.85 0.28 9.92 0.27C10.32 0.18 10.72 0.11 11.13 0.07C11.58 0.03 12.02 0 12.47 0C19.37 0 24.97 5.6 24.97 12.5ZM4.05 4.43C4.96 4.9 5.92 5.27 6.91 5.53C7.42 3.89 8.34 2.4 9.57 1.21C9.53 1.22 9.5 1.22 9.47 1.23C9.38 1.26 9.29 1.28 9.2 1.31C9.1 1.34 8.99 1.37 8.89 1.4C8.8 1.43 8.72 1.46 8.63 1.49C8.53 1.53 8.42 1.56 8.32 1.6C8.24 1.63 8.15 1.67 8.06 1.7C7.96 1.75 7.87 1.79 7.77 1.83C7.68 1.87 7.6 1.91 7.51 1.95C7.42 1.99 7.32 2.04 7.22 2.09C7.14 2.13 7.06 2.17 6.97 2.22C6.88 2.27 6.79 2.32 6.7 2.37C6.61 2.42 6.53 2.46 6.45 2.51C6.36 2.57 6.27 2.62 6.18 2.68C6.1 2.73 6.02 2.78 5.94 2.84C5.86 2.89 5.77 2.96 5.68 3.02C5.61 3.07 5.53 3.13 5.45 3.19C5.37 3.25 5.28 3.32 5.2 3.38C5.13 3.44 5.05 3.5 4.98 3.56C4.9 3.63 4.82 3.7 4.74 3.77C4.66 3.84 4.59 3.9 4.52 3.96C4.44 4.04 4.37 4.11 4.29 4.19C4.22 4.26 4.15 4.32 4.09 4.39C4.08 4.4 4.06 4.42 4.05 4.43ZM0.81 12.08L5.81 12.08C5.83 10.13 6.11 8.19 6.65 6.32C5.55 6.03 4.49 5.6 3.49 5.06C1.85 7.04 0.9 9.51 0.81 12.08ZM6.65 18.68C6.11 16.81 5.83 14.87 5.81 12.92L0.81 12.92C0.9 15.49 1.85 17.96 3.49 19.94C4.49 19.4 5.55 18.98 6.65 18.68ZM9.57 23.8C8.33 22.6 7.42 21.11 6.9 19.47C5.91 19.73 4.96 20.1 4.05 20.57C4.06 20.58 4.07 20.6 4.08 20.61C4.15 20.68 4.22 20.74 4.29 20.81C4.36 20.89 4.44 20.96 4.52 21.04C4.59 21.1 4.66 21.16 4.73 21.23C4.81 21.3 4.89 21.37 4.98 21.44C5.05 21.5 5.12 21.56 5.19 21.62C5.28 21.69 5.36 21.75 5.45 21.82C5.52 21.87 5.6 21.93 5.68 21.98C5.76 22.05 5.85 22.11 5.94 22.17C6.02 22.22 6.1 22.27 6.18 22.32C6.27 22.38 6.36 22.44 6.45 22.49C6.53 22.54 6.61 22.59 6.69 22.63C6.79 22.69 6.88 22.74 6.97 22.79C7.06 22.84 7.14 22.88 7.22 22.92C7.32 22.97 7.42 23.01 7.51 23.06C7.6 23.1 7.68 23.14 7.77 23.18C7.87 23.22 7.97 23.26 8.07 23.3C8.15 23.34 8.24 23.37 8.32 23.4C8.43 23.44 8.53 23.48 8.63 23.51C8.72 23.54 8.8 23.57 8.89 23.6C9 23.64 9.1 23.67 9.21 23.7C9.29 23.72 9.38 23.75 9.46 23.77C9.5 23.78 9.53 23.79 9.57 23.8ZM12.05 18.76C10.6 18.78 9.15 18.95 7.73 19.27C8.71 22.02 10.27 23.88 12.05 24.13L12.05 18.76ZM12.05 12.92L6.64 12.92C6.66 14.8 6.94 16.67 7.46 18.48C8.97 18.13 10.51 17.95 12.05 17.93L12.05 12.92ZM12.05 7.07C10.51 7.05 8.97 6.87 7.46 6.52C6.94 8.33 6.66 10.2 6.64 12.08L12.05 12.08L12.05 7.07ZM12.05 0.87C10.27 1.12 8.71 2.98 7.73 5.73C9.15 6.05 10.6 6.22 12.05 6.24L12.05 0.87ZM18.29 6.32C18.83 8.19 19.11 10.13 19.13 12.08L24.13 12.08C24.04 9.51 23.1 7.04 21.45 5.06C20.45 5.6 19.39 6.03 18.29 6.32ZM15.37 1.2C16.61 2.4 17.52 3.89 18.04 5.53C19.03 5.27 19.99 4.9 20.89 4.43C20.88 4.42 20.87 4.4 20.86 4.39C20.79 4.32 20.72 4.26 20.66 4.19C20.58 4.11 20.5 4.04 20.42 3.96C20.35 3.9 20.28 3.84 20.21 3.77C20.13 3.7 20.05 3.63 19.97 3.56C19.89 3.5 19.82 3.44 19.75 3.38C19.66 3.32 19.58 3.25 19.49 3.18C19.42 3.13 19.34 3.07 19.26 3.02C19.18 2.96 19.09 2.89 19 2.83C18.92 2.78 18.84 2.73 18.76 2.68C18.67 2.62 18.58 2.56 18.49 2.51C18.41 2.46 18.33 2.41 18.25 2.37C18.16 2.31 18.06 2.26 17.97 2.21C17.89 2.17 17.8 2.12 17.72 2.08C17.62 2.03 17.52 1.99 17.43 1.94C17.34 1.9 17.26 1.86 17.17 1.83C17.08 1.78 16.98 1.74 16.88 1.7C16.79 1.67 16.7 1.63 16.62 1.6C16.52 1.56 16.41 1.52 16.31 1.49C16.23 1.46 16.14 1.43 16.05 1.4C15.95 1.37 15.84 1.33 15.74 1.3C15.65 1.28 15.56 1.25 15.47 1.23C15.44 1.22 15.41 1.21 15.37 1.2ZM12.89 6.24C14.34 6.22 15.8 6.05 17.22 5.73C16.23 2.98 14.67 1.12 12.89 0.87L12.89 6.24ZM12.89 12.08L18.3 12.08C18.28 10.2 18 8.33 17.48 6.52C15.97 6.87 14.43 7.05 12.89 7.07L12.89 12.08ZM12.89 17.93C14.43 17.95 15.97 18.13 17.48 18.48C18 16.67 18.28 14.8 18.3 12.92L12.89 12.92L12.89 17.93ZM17.22 19.27C15.8 18.95 14.34 18.78 12.89 18.76L12.89 24.13C14.67 23.88 16.23 22.02 17.22 19.27ZM20.89 20.57C19.98 20.1 19.03 19.73 18.04 19.47C17.52 21.11 16.61 22.6 15.37 23.79C15.41 23.79 15.44 23.78 15.47 23.77C15.56 23.75 15.65 23.72 15.74 23.69C15.84 23.66 15.95 23.63 16.05 23.6C16.14 23.57 16.23 23.54 16.31 23.51C16.42 23.48 16.52 23.44 16.62 23.4C16.71 23.37 16.79 23.33 16.88 23.3C16.98 23.26 17.08 23.21 17.17 23.17C17.26 23.13 17.35 23.1 17.43 23.06C17.53 23.01 17.62 22.96 17.72 22.92C17.8 22.87 17.88 22.83 17.97 22.79C18.06 22.74 18.15 22.68 18.25 22.63C18.33 22.58 18.41 22.54 18.49 22.49C18.58 22.43 18.67 22.38 18.76 22.32C18.84 22.27 18.92 22.22 19 22.17C19.09 22.11 19.17 22.05 19.26 21.98C19.34 21.93 19.41 21.87 19.49 21.82C19.58 21.75 19.66 21.69 19.74 21.62C19.82 21.56 19.89 21.5 19.96 21.44C20.05 21.37 20.13 21.3 20.21 21.23C20.28 21.16 20.35 21.1 20.42 21.04C20.5 20.96 20.58 20.89 20.65 20.81C20.72 20.74 20.79 20.68 20.85 20.61C20.87 20.6 20.88 20.58 20.89 20.57ZM24.13 12.92L19.13 12.92C19.11 14.87 18.83 16.81 18.29 18.68C19.39 18.98 20.45 19.4 21.45 19.94C23.1 17.96 24.04 15.49 24.13 12.92Z" />
			</g>
		</g>
		<g id="Layer">
		</g>
		<g id="Layer">
		</g>
		<g id="Layer">
		</g>
		<g id="Layer">
		</g>
		<g id="Layer">
		</g>
		<g id="Layer">
		</g>
		<g id="Layer">
		</g>
		<g id="Layer">
		</g>
		<g id="Layer">
		</g>
		<g id="Layer">
		</g>
		<g id="Layer">
		</g>
		<g id="Layer">
		</g>
		<g id="Layer">
		</g>
		<g id="Layer">
		</g>
		<g id="Layer">
		</g>
	</g>
</svg>